<?xml version="1.0" encoding="UTF-8" standalone="no"?>
<!-- Created with Inkscape (http://www.inkscape.org/) -->

<svg
   xmlns:dc="http://purl.org/dc/elements/1.1/"
   xmlns:cc="http://creativecommons.org/ns#"
   xmlns:rdf="http://www.w3.org/1999/02/22-rdf-syntax-ns#"
   xmlns:svg="http://www.w3.org/2000/svg"
   xmlns="http://www.w3.org/2000/svg"
   xmlns:sodipodi="http://sodipodi.sourceforge.net/DTD/sodipodi-0.dtd"
   xmlns:inkscape="http://www.inkscape.org/namespaces/inkscape"
   width="16mm"
   height="16mm"
   viewBox="0 0 56.692912 56.692912"
   id="svg3346"
   version="1.1"
   inkscape:version="0.91 r13725"
   sodipodi:docname="trashcan.svg">
  <defs
     id="defs3348" />
  <sodipodi:namedview
     id="base"
     pagecolor="#ffffff"
     bordercolor="#666666"
     borderopacity="1.0"
     inkscape:pageopacity="0.0"
     inkscape:pageshadow="2"
     inkscape:zoom="9.84375"
     inkscape:cx="20.36242"
     inkscape:cy="23.973634"
     inkscape:document-units="px"
     inkscape:current-layer="layer1"
     showgrid="false"
     inkscape:snap-midpoints="false"
     inkscape:window-width="1880"
     inkscape:window-height="1067"
     inkscape:window-x="7"
     inkscape:window-y="1087"
     inkscape:window-maximized="0"
     borderlayer="false"
     inkscape:showpageshadow="true"
     showborder="true" />
  <metadata
     id="metadata3351">
    <rdf:RDF>
      <cc:Work
         rdf:about="">
        <dc:format>image/svg+xml</dc:format>
        <dc:type
           rdf:resource="http://purl.org/dc/dcmitype/StillImage" />
        <dc:title></dc:title>
      </cc:Work>
    </rdf:RDF>
  </metadata>
  <g
     inkscape:label="Layer 1"
     inkscape:groupmode="layer"
     id="layer1"
     transform="translate(0,-995.66929)">
    <path
       style="color:#000000;font-style:normal;font-variant:normal;font-weight:normal;font-stretch:normal;font-size:medium;line-height:normal;font-family:sans-serif;text-indent:0;text-align:start;text-decoration:none;text-decoration-line:none;text-decoration-style:solid;text-decoration-color:#000000;letter-spacing:normal;word-spacing:normal;text-transform:none;direction:ltr;block-progression:tb;writing-mode:lr-tb;baseline-shift:baseline;text-anchor:start;white-space:normal;clip-rule:nonzero;display:inline;overflow:visible;visibility:visible;opacity:1;isolation:auto;mix-blend-mode:normal;color-interpolation:sRGB;color-interpolation-filters:linearRGB;solid-color:#000000;solid-opacity:1;fill:#ffffff;fill-opacity:1;fill-rule:evenodd;stroke:#abaeb0;stroke-width:1.73203385;stroke-linecap:butt;stroke-linejoin:miter;stroke-miterlimit:4;stroke-dasharray:none;stroke-dashoffset:0;stroke-opacity:1;color-rendering:auto;image-rendering:auto;shape-rendering:auto;text-rendering:auto;enable-background:accumulate"
       d="m 35.227157,1006.7807 c -1.870344,0.012 -3.740544,0.039 -5.610785,0.061 0.2163,0.3074 1.01307,0.017 1.440166,0.1076 3.665396,-0.021 7.339866,-0.1605 10.997663,0.1398 1.709996,0.146 3.490968,0.525 4.819735,1.6896 0.645525,0.5413 1.212291,1.1862 1.630965,1.9206 0.144036,-0.3955 -0.59927,-0.9838 -0.872083,-1.3769 -1.14556,-1.2676 -2.769152,-2.014 -4.447598,-2.2218 -2.633503,-0.3726 -5.305463,-0.3162 -7.958063,-0.32 z"
       id="path3360"
       inkscape:connector-curvature="0" />
    <path
       style="fill:none;fill-rule:evenodd;stroke:#abaeb0;stroke-width:3.78387165;stroke-linecap:butt;stroke-linejoin:miter;stroke-miterlimit:4;stroke-dasharray:none;stroke-opacity:1"
       d="m 43.328199,1008.9864 c 0.100831,19.6248 0.302494,33.3474 0.302494,35.5607 0,2.2132 -1.209967,2.3607 -2.218278,2.3607 -1.008297,0 -12.301335,0 -12.301335,0"
       id="path4183"
       inkscape:connector-curvature="0" />
    <path
       style="color:#000000;font-style:normal;font-variant:normal;font-weight:normal;font-stretch:normal;font-size:medium;line-height:normal;font-family:sans-serif;text-indent:0;text-align:start;text-decoration:none;text-decoration-line:none;text-decoration-style:solid;text-decoration-color:#000000;letter-spacing:normal;word-spacing:normal;text-transform:none;direction:ltr;block-progression:tb;writing-mode:lr-tb;baseline-shift:baseline;text-anchor:start;white-space:normal;clip-rule:nonzero;display:inline;overflow:visible;visibility:visible;opacity:1;isolation:auto;mix-blend-mode:normal;color-interpolation:sRGB;color-interpolation-filters:linearRGB;solid-color:#000000;solid-opacity:1;fill:#ffffff;fill-opacity:1;fill-rule:nonzero;stroke:#abaeb0;stroke-width:2.23486733;stroke-linecap:butt;stroke-linejoin:miter;stroke-miterlimit:4;stroke-dasharray:none;stroke-dashoffset:0;stroke-opacity:1;color-rendering:auto;image-rendering:auto;shape-rendering:auto;text-rendering:auto;enable-background:accumulate"
       d="m 29.602119,998.97781 c 1.619569,0 2.930642,1.18739 2.930642,2.64449 0,1.4571 -1.311073,2.644 -2.930642,2.644 -1.619596,0 -2.931122,-1.1869 -2.931122,-2.644 0,-1.4571 1.311526,-2.64449 2.931122,-2.64449 z m 0,0.21526 c -1.481459,0 -2.684363,1.08443 -2.684363,2.42923 0,1.3448 1.202904,2.4288 2.684363,2.4288 1.48146,0 2.683883,-1.084 2.683883,-2.4288 0,-1.3448 -1.202423,-2.42923 -2.683883,-2.42923 z"
       id="path3368-6"
       inkscape:connector-curvature="0" />
    <path
       style="color:#000000;font-style:normal;font-variant:normal;font-weight:normal;font-stretch:normal;font-size:medium;line-height:normal;font-family:sans-serif;text-indent:0;text-align:start;text-decoration:none;text-decoration-line:none;text-decoration-style:solid;text-decoration-color:#000000;letter-spacing:normal;word-spacing:normal;text-transform:none;direction:ltr;block-progression:tb;writing-mode:lr-tb;baseline-shift:baseline;text-anchor:start;white-space:normal;clip-rule:nonzero;display:inline;overflow:visible;visibility:visible;opacity:1;isolation:auto;mix-blend-mode:normal;color-interpolation:sRGB;color-interpolation-filters:linearRGB;solid-color:#000000;solid-opacity:1;fill:#ffffff;fill-opacity:1;fill-rule:evenodd;stroke:#abaeb0;stroke-width:1.73688519;stroke-linecap:butt;stroke-linejoin:miter;stroke-miterlimit:4;stroke-dasharray:none;stroke-dashoffset:0;stroke-opacity:1;color-rendering:auto;image-rendering:auto;shape-rendering:auto;text-rendering:auto;enable-background:accumulate"
       d="m 24.484043,1006.7994 c 1.881142,0.012 3.76214,0.039 5.64318,0.061 -0.217549,0.3074 -1.01892,0.017 -1.448482,0.1076 -3.686558,-0.021 -7.382244,-0.1604 -11.06116,0.1398 -1.719869,0.146 -3.511123,0.5249 -4.847562,1.6893 -0.649252,0.5412 -1.219291,1.186 -1.640382,1.9203 -0.144868,-0.3954 0.60273,-0.9836 0.877118,-1.3767 1.152174,-1.2674 2.78514,-2.0136 4.473277,-2.2214 2.648708,-0.3725 5.336095,-0.3161 8.004011,-0.3199 z"
       id="path3360-3"
       inkscape:connector-curvature="0" />
    <path
       style="fill:none;fill-rule:evenodd;stroke:#abaeb0;stroke-width:3.79447031;stroke-linecap:butt;stroke-linejoin:miter;stroke-miterlimit:4;stroke-dasharray:none;stroke-opacity:1"
       d="m 16.336228,1009.0047 c -0.101414,19.6216 -0.304241,33.342 -0.304241,35.5549 0,2.2128 1.216953,2.3603 2.231086,2.3603 1.014118,0 12.372359,0 12.372359,0"
       id="path4183-6"
       inkscape:connector-curvature="0" />
    <path
       style="fill:none;fill-rule:evenodd;stroke:#abaeb0;stroke-width:2.6;stroke-linecap:butt;stroke-linejoin:miter;stroke-opacity:1;stroke-miterlimit:4;stroke-dasharray:none"
       d="m 29.561905,1013.759 0,32.6096"
       id="path4372"
       inkscape:connector-curvature="0" />
  </g>
</svg>
